<svg id="Capa_1" enable-background="new 0 0 508.466 508.466" height="512" viewBox="0 0 508.466 508.466" width="512" xmlns="http://www.w3.org/2000/svg"><g><g><path d="m67.458 352.772v-328.048c0-9.513 7.712-17.224 17.224-17.224h339.101c9.513 0 17.224 7.712 17.224 17.224v328.543c0 5.196-2.346 10.115-6.384 13.385l-161.116 130.478c-6.089 4.931-14.738 5.131-21.049.487l-177.984-130.972c-4.411-3.246-7.016-8.397-7.016-13.873z" fill="#cc98ff"/></g><g><path d="m423.783 7.5h-13.088c.198 1.046.312 2.121.312 3.224v328.542c0 5.197-2.346 10.115-6.384 13.385l-161.116 130.479c-1.91 1.547-4.072 2.627-6.334 3.239l15.286 11.248c6.311 4.644 14.96 4.443 21.049-.488l161.117-130.478c4.038-3.27 6.384-8.189 6.384-13.385v-328.542c-.001-9.512-7.713-17.224-17.226-17.224z" fill="#ba87ee"/></g><g><path d="m375.746 337.151h-243.026c-6.87 0-12.439-5.569-12.439-12.439v-256.901c0-6.87 5.569-12.439 12.439-12.439h243.025c6.87 0 12.439 5.569 12.439 12.439v256.901c0 6.87-5.569 12.439-12.438 12.439z" fill="#f5f5f5"/></g><g><path d="m375.746 55.373h-30c6.87 0 12.439 5.569 12.439 12.439v256.901c0 6.87-5.569 12.439-12.439 12.439h30c6.87 0 12.439-5.569 12.439-12.439v-256.901c-.001-6.87-5.57-12.439-12.439-12.439z" fill="#ebe5ed"/></g><g><path d="m423.783 0h-339.101c-13.632 0-24.724 11.091-24.724 24.724v78.186c0 4.142 3.358 7.5 7.5 7.5s7.5-3.358 7.5-7.5v-78.186c0-5.362 4.362-9.724 9.724-9.724h339.101c5.362 0 9.724 4.362 9.724 9.724v328.543c0 2.947-1.314 5.702-3.604 7.557l-161.117 130.477c-3.436 2.782-8.323 2.895-11.883.275l-177.984-130.972c-2.48-1.825-3.961-4.753-3.961-7.832v-219.862c0-4.142-3.358-7.5-7.5-7.5s-7.5 3.358-7.5 7.5v219.862c0 7.829 3.765 15.273 10.07 19.914l177.984 130.973c4.364 3.212 9.511 4.809 14.651 4.808 5.522 0 11.038-1.844 15.563-5.508l161.117-130.477c5.824-4.716 9.164-11.72 9.164-19.214v-328.544c.001-13.633-11.091-24.724-24.724-24.724z"/><path d="m266.909 47.873h-134.189c-10.994 0-19.939 8.945-19.939 19.939v256.901c0 10.994 8.945 19.939 19.939 19.939h243.025c10.994 0 19.939-8.944 19.939-19.939v-256.901c0-10.994-8.944-19.939-19.939-19.939h-78.836c-4.142 0-7.5 3.358-7.5 7.5s3.358 7.5 7.5 7.5h78.836c2.723 0 4.939 2.216 4.939 4.939v256.901c0 2.723-2.215 4.939-4.939 4.939h-243.025c-2.723 0-4.939-2.215-4.939-4.939v-256.901c0-2.723 2.216-4.939 4.939-4.939h134.189c4.142 0 7.5-3.358 7.5-7.5s-3.357-7.5-7.5-7.5z"/><path d="m202.855 189.401c4.142 0 7.5-3.358 7.5-7.5v-73.235h14.883c4.142 0 7.5-3.358 7.5-7.5s-3.358-7.5-7.5-7.5h-44.587c-4.142 0-7.5 3.358-7.5 7.5s3.358 7.5 7.5 7.5h14.704v73.235c0 4.142 3.358 7.5 7.5 7.5z"/><path d="m286.796 93.584c-26.395 0-47.868 21.473-47.868 47.868s21.473 47.868 47.868 47.868c26.394 0 47.867-21.473 47.867-47.868s-21.473-47.868-47.867-47.868zm0 80.735c-18.124 0-32.868-14.744-32.868-32.868s14.744-32.868 32.868-32.868c18.123 0 32.867 14.744 32.867 32.868s-14.744 32.868-32.867 32.868z"/><path d="m181.57 286.063c1.405 1.395 3.305 2.177 5.284 2.177h.028c.545-.002 13.386-.052 18.516-.141 18.848-.33 32.528-16.799 32.528-39.163 0-23.508-13.336-39.303-33.187-39.303h-18.015c-1.992 0-3.901.792-5.308 2.202s-2.196 3.321-2.192 5.313v.05c0 .001.053 63.535.153 64.023.118 1.823.889 3.547 2.193 4.842zm23.169-61.43c13.409 0 18.187 12.554 18.187 24.303 0 16.478-8.935 24.01-17.79 24.164-2.474.044-6.918.078-10.807.102-.024-7.523-.058-18.761-.058-24.336 0-4.658-.019-16.409-.032-24.233z"/><path d="m254.768 249.773c0 22.207 18.066 40.273 40.273 40.273 22.206 0 40.273-18.066 40.273-40.273s-18.066-40.273-40.273-40.273c-22.206.001-40.273 18.067-40.273 40.273zm65.546 0c0 13.936-11.337 25.273-25.273 25.273s-25.273-11.337-25.273-25.273 11.337-25.273 25.273-25.273c13.936.001 25.273 11.338 25.273 25.273z"/><path d="m213.764 390.95c-4.142 0-7.5 3.358-7.5 7.5s3.358 7.5 7.5 7.5h96.6c4.142 0 7.5-3.358 7.5-7.5s-3.358-7.5-7.5-7.5z"/></g></g></svg>